<?xml version="1.0" encoding="utf-8"?>
<!DOCTYPE svg PUBLIC "-//W3C//DTD SVG 1.0//EN" "http://www.w3.org/TR/2001/REC-SVG-20010904/DTD/svg10.dtd">
<svg version="1.0" xmlns="http://www.w3.org/2000/svg" width="1008px" height="510px" viewBox="0 0 1008 510" preserveAspectRatio="xMidYMid meet">
 <g fill="#ece7fe">
  <path d="M604.5 509 c-120.4 -3.2 -242 -23.4 -342.5 -57 -137.4 -45.9 -225.7 -113.7 -252.4 -194 -12.1 -36.5 -11.8 -74 0.9 -117.8 21.9 -75.6 64 -122.5 121.5 -135.7 23.2 -5.2 59.1 -4.8 80 1.1 12.6 3.6 28.6 13.5 53.2 32.7 7.1 5.6 18.7 14.7 25.8 20.3 44.8 35.1 76.2 51.4 113.3 58.9 17.8 3.6 40.6 6 83.9 9 67.2 4.6 89.6 7.6 112.4 15 13 4.3 20.1 7.9 29.9 15.3 20 15.1 45.5 23.2 108.5 34.7 75.4 13.8 104.5 20.1 133 29.1 72.2 22.8 113.3 56.3 128.8 105.4 4.2 13.2 6.2 26.3 6.2 40 0 12.2 -1.2 18.8 -5.4 29.2 -30 74.2 -187.1 119.2 -397.1 113.8z"/>
 </g>
</svg>