<svg width="143" height="40" viewBox="0 0 143 40" fill="none" xmlns="http://www.w3.org/2000/svg">
<path fill-rule="evenodd" clip-rule="evenodd" d="M34.8307 7.02319L26.9849 22.9259L7.09863 34.7343L32.8476 32.987L34.8307 7.02319Z" fill="url(#paint0_linear_0_1)"/>
<path fill-rule="evenodd" clip-rule="evenodd" d="M24.6484 25.6542L32.8898 32.9692L30.6767 17.6941L24.6484 25.6542Z" fill="url(#paint1_linear_0_1)"/>
<path fill-rule="evenodd" clip-rule="evenodd" d="M7.18457 34.701L32.9194 32.9692L16.7058 31.6964L7.18457 34.701Z" fill="url(#paint2_linear_0_1)"/>
<path fill-rule="evenodd" clip-rule="evenodd" d="M2.34473 23.3409L7.20729 34.7043L11.2577 21.4351L2.34473 23.3409Z" fill="url(#paint3_linear_0_1)"/>
<path fill-rule="evenodd" clip-rule="evenodd" d="M10.2539 21.0975L24.6465 25.6981L20.9196 11.0999L10.2539 21.0975Z" fill="url(#paint4_linear_0_1)"/>
<path fill-rule="evenodd" clip-rule="evenodd" d="M21.0957 12.1476L33.9852 11.3056L23.9032 3.07117L21.0957 12.1476Z" fill="url(#paint5_linear_0_1)"/>
<path fill-rule="evenodd" clip-rule="evenodd" d="M19.5996 0.0914307L29.2702 0.13538L23.3406 3.41226L19.5996 0.0914307Z" fill="url(#paint6_linear_0_1)"/>
<path fill-rule="evenodd" clip-rule="evenodd" d="M0.474654 17.8646L0 27.7919L2.48402 23.2616L0.474654 17.8646Z" fill="url(#paint7_linear_0_1)"/>
<path fill-rule="evenodd" clip-rule="evenodd" d="M0.34082 17.6941L2.3625 23.4286L11.1471 21.4578L21.1764 12.1369L24.0067 3.14679L19.5501 0L11.9732 2.83563C9.58603 5.05596 4.95376 9.44915 4.78675 9.53178C4.6215 9.61616 1.72787 15.0852 0.34082 17.6941Z" fill="white"/>
<path fill-rule="evenodd" clip-rule="evenodd" d="M7.43995 7.39237C12.6137 2.26257 19.2835 -0.768188 21.8431 1.81429C24.4011 4.39676 21.6884 10.6728 16.5146 15.8008C11.3409 20.9288 4.75376 24.1266 2.19591 21.5441C-0.363711 18.9634 2.26622 12.5204 7.43995 7.39237Z" fill="url(#paint8_linear_0_1)"/>
<path fill-rule="evenodd" clip-rule="evenodd" d="M7.20801 34.699L11.2267 21.3876L24.5733 25.6753C19.7477 30.2003 14.3806 34.0257 7.20801 34.699Z" fill="url(#paint9_linear_0_1)"/>
<path fill-rule="evenodd" clip-rule="evenodd" d="M21.1943 12.1108L24.6206 25.6824C28.6517 21.4439 32.2696 16.8872 34.0415 11.2511L21.1943 12.1108Z" fill="url(#paint10_linear_0_1)"/>
<path fill-rule="evenodd" clip-rule="evenodd" d="M34.0068 11.3197C35.378 7.18142 35.6945 1.24471 29.2284 0.142456L23.9229 3.07301L34.0068 11.3197Z" fill="url(#paint11_linear_0_1)"/>
<path fill-rule="evenodd" clip-rule="evenodd" d="M0 27.7322C0.189862 34.5621 5.11747 34.6639 7.2165 34.7239L2.368 23.4005L0 27.7322Z" fill="#AC95ED"/>
<path fill-rule="evenodd" clip-rule="evenodd" d="M21.2129 12.1318C24.3104 14.0357 30.5532 17.8593 30.6798 17.9296C30.8765 18.0404 33.3712 13.7228 33.9373 11.2827L21.2129 12.1318Z" fill="url(#paint12_radial_0_1)"/>
<path fill-rule="evenodd" clip-rule="evenodd" d="M11.2207 21.3876L16.5931 31.7526C19.7698 30.0298 22.2573 27.9308 24.5356 25.6823L11.2207 21.3876Z" fill="url(#paint13_radial_0_1)"/>
<path fill-rule="evenodd" clip-rule="evenodd" d="M2.34714 23.4146L1.58594 32.4788C3.02221 34.4407 4.99817 34.6112 7.07083 34.4583C5.57127 30.7261 2.57568 23.2634 2.34714 23.4146Z" fill="url(#paint14_linear_0_1)"/>
<path fill-rule="evenodd" clip-rule="evenodd" d="M23.8906 3.09582L34.5633 4.59362C33.9937 2.17991 32.2445 0.622337 29.263 0.135376L23.8906 3.09582Z" fill="url(#paint15_linear_0_1)"/>
<path d="M75.7369 31.0888H68.0701C66.3708 28.4261 64.8321 26.1248 63.454 24.1847C62.0892 22.2445 60.604 20.2442 58.9984 18.1837H56.0883V27.2152C56.0882 27.6836 56.1619 28.0983 56.309 28.4596C56.4562 28.8075 56.7706 29.0751 57.2523 29.2624C57.4931 29.3561 57.9146 29.443 58.5167 29.5233C59.1188 29.6036 59.6273 29.6504 60.0421 29.6638V31.0888H48V29.6638C48.3211 29.637 48.7827 29.5902 49.3848 29.5233C50.0003 29.4564 50.4285 29.3694 50.6693 29.2624C51.0707 29.0885 51.3584 28.8342 51.5323 28.4997C51.7197 28.1652 51.8133 27.7371 51.8133 27.2152V6.62328C51.8133 6.15501 51.7464 5.74022 51.6126 5.37893C51.4788 5.0177 51.1644 4.74341 50.6693 4.55606C50.3348 4.43571 49.9 4.32863 49.3648 4.23494C48.8296 4.12794 48.3746 4.06102 48 4.03424V2.60925H61.1459C62.3501 2.60929 63.4807 2.73642 64.5378 2.99059C65.5948 3.23146 66.5514 3.62617 67.4078 4.17472C68.2373 4.70996 68.8996 5.41241 69.3947 6.28209C69.8898 7.13844 70.1373 8.17539 70.1373 9.39296C70.1373 10.4902 69.97 11.4602 69.6356 12.3031C69.301 13.1461 68.806 13.8753 68.1504 14.4908C67.5483 15.0661 66.8257 15.5679 65.9828 15.996C65.1398 16.4108 64.2099 16.7654 63.1931 17.0598C64.5979 18.9196 65.762 20.4851 66.6853 21.7562C67.6218 23.0273 68.7658 24.5727 70.1172 26.3924C70.7059 27.1952 71.2345 27.7906 71.7028 28.1786C72.1844 28.5533 72.6594 28.861 73.1278 29.1018C73.4756 29.2758 73.9105 29.4096 74.4323 29.5032C74.9541 29.5969 75.389 29.6504 75.7369 29.6638V31.0888ZM65.18 9.85458C65.18 8.12857 64.6849 6.7638 63.6948 5.76027C62.7047 4.74341 61.3065 4.23497 59.5002 4.23494H56.0883V16.4577H58.7174C60.5639 16.4577 62.1026 15.8689 63.3336 14.6915C64.5645 13.5007 65.18 11.8884 65.18 9.85458Z" fill="#B89AF9"/>
<path d="M97.5133 30.7276L91.0708 31.1691L90.7697 30.8881V28.3794H90.6494C90.3282 28.7139 89.9669 29.0751 89.5656 29.4632C89.1641 29.8378 88.7025 30.179 88.1807 30.4867C87.5786 30.848 86.9966 31.1223 86.4346 31.3096C85.8727 31.4969 85.0765 31.5906 84.0463 31.5906C82.2935 31.5906 80.9555 31.0219 80.0323 29.8846C79.1224 28.7339 78.6675 27.0681 78.6675 24.8872V15.4141C78.6675 14.9324 78.5739 14.531 78.3865 14.2099C78.2126 13.8754 77.9517 13.5877 77.6038 13.3468C77.3629 13.1863 77.0619 13.0726 76.7006 13.0056C76.3394 12.9254 75.958 12.8719 75.5566 12.8451V11.5405L82.1597 11.0588L82.4608 11.3398V25.0879C82.4607 26.5195 82.7819 27.5966 83.4241 28.3192C84.0664 29.0417 84.8357 29.403 85.7322 29.403C86.4681 29.403 87.1237 29.2892 87.699 29.0618C88.2744 28.8343 88.7561 28.5667 89.1441 28.259C89.5053 27.978 89.8198 27.6836 90.0874 27.3759C90.3683 27.0547 90.5824 26.7604 90.7296 26.4928V15.2736C90.7296 14.832 90.636 14.444 90.4486 14.1095C90.2613 13.7616 90.0004 13.4673 89.6659 13.2264C89.4251 13.0659 89.0638 12.9722 88.5821 12.9454C88.1138 12.9053 87.5853 12.8719 86.9966 12.8451V11.5405L94.1817 11.0588L94.4827 11.3398V27.0547C94.4827 27.5097 94.5764 27.8977 94.7637 28.2188C94.951 28.5399 95.2119 28.8142 95.5465 29.0417C95.7873 29.1889 96.0749 29.2892 96.4095 29.3427C96.7439 29.3829 97.1119 29.4096 97.5133 29.423L97.5133 30.7276Z" fill="#B89AF9"/>
<path d="M120.072 21.1742C120.072 24.1446 119.136 26.64 117.262 28.6603C115.389 30.6807 113.215 31.6909 110.74 31.6909C109.656 31.6909 108.585 31.5237 107.528 31.1892C106.485 30.8547 105.501 30.4065 104.578 29.8445L103.093 32.1526L101.849 31.8716C101.915 30.8814 101.962 29.6906 101.989 28.2991C102.016 26.9076 102.029 25.5629 102.029 24.265V4.67654C102.029 4.22163 101.922 3.76672 101.708 3.31177C101.507 2.85686 101.246 2.52906 100.925 2.32832C100.671 2.15442 100.243 2.0273 99.6408 1.947C99.0521 1.85336 98.5771 1.79315 98.2158 1.76636V0.48187L105.481 0.0202637L105.762 0.321309V13.3669L105.903 13.407C106.732 12.524 107.635 11.8617 108.612 11.4201C109.602 10.9786 110.572 10.7578 111.522 10.7578C113.957 10.7578 115.991 11.7212 117.624 13.6479C119.256 15.5746 120.072 18.0834 120.072 21.1742ZM115.878 21.3147C115.877 20.3246 115.771 19.3144 115.556 18.2841C115.342 17.2538 115.008 16.3574 114.553 15.5947C114.098 14.8187 113.503 14.1898 112.767 13.7081C112.031 13.2264 111.148 12.9856 110.117 12.9856C109.181 12.9856 108.358 13.1729 107.649 13.5475C106.953 13.9088 106.324 14.4039 105.762 15.0327V26.553C105.842 26.8741 105.996 27.2488 106.224 27.6769C106.465 28.1051 106.786 28.5132 107.187 28.9012C107.589 29.2758 108.043 29.5836 108.552 29.8244C109.06 30.0519 109.683 30.1656 110.418 30.1656C112.051 30.1656 113.369 29.3762 114.372 27.7973C115.376 26.2185 115.877 24.0576 115.878 21.3147Z" fill="#B89AF9"/>
<path d="M121.516 37.5514C121.516 36.8824 121.697 36.3338 122.058 35.9057C122.433 35.4909 122.895 35.2835 123.443 35.2835C123.871 35.2835 124.239 35.3638 124.547 35.5243C124.855 35.6849 125.129 35.8923 125.37 36.1465C125.571 36.3472 125.785 36.6215 126.012 36.9694C126.24 37.3173 126.42 37.6049 126.554 37.8324C127.223 37.4711 128.019 36.5278 128.942 35.0025C129.879 33.4772 130.555 32.1392 130.969 30.9885C129.698 27.8174 128.548 24.9808 127.517 22.4788C126.487 19.9767 125.41 17.3876 124.286 14.7116C124.032 14.0961 123.604 13.6211 123.002 13.2866C122.4 12.9388 121.797 12.718 121.195 12.6243V11.2997H130.227V12.7046C129.825 12.718 129.344 12.805 128.782 12.9655C128.22 13.1127 127.939 13.3201 127.939 13.5877C127.939 13.5877 127.972 13.688 128.039 13.8887C128.119 14.0894 128.186 14.2835 128.24 14.4708C128.748 15.7954 129.524 17.7088 130.568 20.2108C131.612 22.6995 132.421 24.6932 132.996 26.1917C133.599 24.7601 134.221 23.2816 134.863 21.7562C135.519 20.2175 136.248 18.4045 137.051 16.3172C137.144 16.063 137.278 15.7151 137.452 15.2736C137.626 14.8187 137.713 14.4306 137.713 14.1095C137.713 13.7616 137.405 13.4405 136.79 13.1461C136.188 12.8384 135.612 12.6511 135.064 12.5842V11.2997H142.409V12.544C142.008 12.611 141.479 12.8451 140.824 13.2465C140.168 13.6345 139.68 14.1898 139.359 14.9123C137.766 18.6052 136.348 21.9703 135.104 25.0076C133.873 28.0449 132.936 30.2793 132.294 31.711C131.451 33.5842 130.695 35.0427 130.026 36.0863C129.37 37.1433 128.728 37.9729 128.099 38.575C127.484 39.137 126.922 39.5116 126.414 39.6989C125.918 39.8996 125.403 40 124.868 40C123.824 40 123.002 39.7524 122.399 39.2574C121.811 38.7623 121.516 38.1937 121.516 37.5514Z" fill="#B89AF9"/>
<defs>
<linearGradient id="paint0_linear_0_1" x1="30.6017" y1="37.8932" x2="23.2538" y2="24.92" gradientUnits="userSpaceOnUse">
<stop stop-color="white"/>
<stop offset="0.41" stop-color="#EAE5F9"/>
<stop offset="0.99" stop-color="#9882F3"/>
<stop offset="1" stop-color="#9882F3"/>
</linearGradient>
<linearGradient id="paint1_linear_0_1" x1="34.2621" y1="26.9952" x2="24.7923" y2="20.6404" gradientUnits="userSpaceOnUse">
<stop stop-color="#9B73F0"/>
<stop offset="0.99" stop-color="#A48BEB"/>
<stop offset="1" stop-color="#A48BEB"/>
</linearGradient>
<linearGradient id="paint2_linear_0_1" x1="26.685" y1="38.2862" x2="17.2155" y2="31.9316" gradientUnits="userSpaceOnUse">
<stop stop-color="#9B73F0"/>
<stop offset="0.99" stop-color="#A48BEB"/>
<stop offset="1" stop-color="#A48BEB"/>
</linearGradient>
<linearGradient id="paint3_linear_0_1" x1="6.80231" y1="22.395" x2="8.27033" y2="31.9357" gradientUnits="userSpaceOnUse">
<stop stop-color="white"/>
<stop offset="0.23" stop-color="white"/>
<stop offset="0.46" stop-color="#E9E2F7"/>
<stop offset="0.99" stop-color="#A08EF4"/>
<stop offset="1" stop-color="#A08EF4"/>
</linearGradient>
<linearGradient id="paint4_linear_0_1" x1="16.8996" y1="13.4864" x2="17.4405" y2="23.2233" gradientUnits="userSpaceOnUse">
<stop stop-color="white"/>
<stop offset="0.23" stop-color="white"/>
<stop offset="0.56" stop-color="#C5B5F1"/>
<stop offset="0.99" stop-color="#AB8FF4"/>
<stop offset="1" stop-color="#AB8FF4"/>
</linearGradient>
<linearGradient id="paint5_linear_0_1" x1="25.8604" y1="4.48652" x2="27.4797" y2="11.4649" gradientUnits="userSpaceOnUse">
<stop stop-color="white"/>
<stop offset="0.18" stop-color="white"/>
<stop offset="0.4" stop-color="#D0C1F3"/>
<stop offset="0.99" stop-color="#AB8FF4"/>
<stop offset="1" stop-color="#AB8FF4"/>
</linearGradient>
<linearGradient id="paint6_linear_0_1" x1="20.9156" y1="2.02899" x2="27.8935" y2="-1.45994" gradientUnits="userSpaceOnUse">
<stop stop-color="white"/>
<stop offset="0.54" stop-color="#CFC2F3"/>
<stop offset="0.99" stop-color="#BBABF4"/>
<stop offset="1" stop-color="#BBABF4"/>
</linearGradient>
<linearGradient id="paint7_linear_0_1" x1="0.686192" y1="19.9627" x2="1.26051" y2="25.7127" gradientUnits="userSpaceOnUse">
<stop stop-color="white"/>
<stop offset="0.31" stop-color="#ECE6F8"/>
<stop offset="0.99" stop-color="#C5B3F2"/>
<stop offset="1" stop-color="#C5B3F2"/>
</linearGradient>
<linearGradient id="paint8_linear_0_1" x1="-3.26186" y1="27.2671" x2="23.7356" y2="-0.49376" gradientUnits="userSpaceOnUse">
<stop stop-color="#ABA2F6"/>
<stop offset="0.07" stop-color="white"/>
<stop offset="0.17" stop-color="white"/>
<stop offset="0.27" stop-color="#D9CEF2"/>
<stop offset="0.33" stop-color="#946FEF"/>
<stop offset="0.46" stop-color="#AE8CF3"/>
<stop offset="0.72" stop-color="#B69BF4"/>
<stop offset="0.99" stop-color="#E0D4F9"/>
<stop offset="1" stop-color="#E0D4F9"/>
</linearGradient>
<linearGradient id="paint9_linear_0_1" x1="17.4174" y1="30.0673" x2="9.28553" y2="28.0603" gradientUnits="userSpaceOnUse">
<stop stop-color="#9A78F0"/>
<stop offset="0.54" stop-color="#A182F3"/>
<stop offset="0.99" stop-color="#B1A3ED"/>
<stop offset="1" stop-color="#B1A3ED"/>
</linearGradient>
<linearGradient id="paint10_linear_0_1" x1="31.3846" y1="20.3073" x2="24.1605" y2="13.8325" gradientUnits="userSpaceOnUse">
<stop stop-color="#997FE5"/>
<stop offset="0.99" stop-color="#A486F3"/>
<stop offset="1" stop-color="#A486F3"/>
</linearGradient>
<linearGradient id="paint11_linear_0_1" x1="34.0391" y1="8.4273" x2="30.4406" y2="4.58028" gradientUnits="userSpaceOnUse">
<stop stop-color="#9980E2"/>
<stop offset="0.99" stop-color="#AD98EC"/>
<stop offset="1" stop-color="#AD98EC"/>
</linearGradient>
<radialGradient id="paint12_radial_0_1" cx="0" cy="0" r="1" gradientUnits="userSpaceOnUse" gradientTransform="translate(25.2848 13.9563) scale(8.85276 8.85278)">
<stop stop-color="#AB8FF4"/>
<stop offset="0.99" stop-color="#957AE8"/>
<stop offset="1" stop-color="#957AE8"/>
</radialGradient>
<radialGradient id="paint13_radial_0_1" cx="0" cy="0" r="1" gradientUnits="userSpaceOnUse" gradientTransform="translate(13.0248 25.6227) scale(11.7686 11.7686)">
<stop stop-color="#A78BF4"/>
<stop offset="0.99" stop-color="#967BE8"/>
<stop offset="1" stop-color="#967BE8"/>
</radialGradient>
<linearGradient id="paint14_linear_0_1" x1="4.68875" y1="34.6914" x2="1.75622" y2="24.7422" gradientUnits="userSpaceOnUse">
<stop stop-color="#AF98E3"/>
<stop offset="0.43" stop-color="#AB97ED"/>
<stop offset="0.99" stop-color="#BAABF0"/>
<stop offset="1" stop-color="#BAABF0"/>
</linearGradient>
<linearGradient id="paint15_linear_0_1" x1="27.1853" y1="1.72246" x2="33.7597" y2="4.62453" gradientUnits="userSpaceOnUse">
<stop stop-color="#B499F5"/>
<stop offset="0.44" stop-color="#A289EB"/>
<stop offset="0.99" stop-color="#A289DE"/>
<stop offset="1" stop-color="#A289DE"/>
</linearGradient>
</defs>
</svg>
