<svg width="326" height="89" viewBox="0 0 326 89" fill="none" xmlns="http://www.w3.org/2000/svg">
<path d="M55.668 1.72V67H43.188L12.948 23.32V67H0.564001V1.72H12.948L43.188 45.304V1.72H55.668ZM91.206 68.152C83.846 68.152 78.086 65.944 73.926 61.528C69.83 57.048 67.782 51.064 67.782 43.576C67.782 36.152 69.926 30.232 74.214 25.816C78.566 21.4 84.486 19.192 91.974 19.192C99.718 19.192 105.702 21.496 109.926 26.104C114.214 30.648 116.358 36.632 116.358 44.056C116.358 51.48 114.054 57.368 109.446 61.72C104.838 66.008 98.758 68.152 91.206 68.152ZM103.494 44.056C103.494 39.64 102.502 36.184 100.518 33.688C98.598 31.128 95.846 29.848 92.262 29.848C88.614 29.848 85.766 30.968 83.718 33.208C81.67 35.448 80.646 38.872 80.646 43.48C80.646 48.088 81.51 51.576 83.238 53.944C85.03 56.312 87.75 57.496 91.398 57.496C94.982 57.496 97.894 56.44 100.134 54.328C102.374 52.152 103.494 48.728 103.494 44.056ZM158.583 67H122.967L121.911 57.304H157.623L158.583 67ZM165.597 34.648C165.597 24.6 168.221 16.408 173.469 10.072C178.717 3.672 186.109 0.375998 195.645 0.183996C205.885 0.183996 213.469 3.48 218.397 10.072C223.325 16.664 225.789 24.632 225.789 33.976C225.789 44.088 223.133 52.344 217.821 58.744C212.573 65.144 205.181 68.344 195.645 68.344C185.469 68.344 177.917 65.08 172.989 58.552C168.061 51.96 165.597 43.992 165.597 34.648ZM178.557 34.552C178.557 41.4 179.933 47 182.685 51.352C185.437 55.704 189.725 57.88 195.549 57.88C200.797 57.88 204.989 55.928 208.125 52.024C211.261 48.12 212.829 42.104 212.829 33.976C212.829 27.192 211.453 21.624 208.701 17.272C205.949 12.92 201.661 10.744 195.837 10.744C190.717 10.744 186.557 12.888 183.357 17.176C180.157 21.464 178.557 27.256 178.557 34.552ZM258.545 57.496C262.833 57.496 265.841 55.96 267.569 52.888C269.297 49.752 270.161 46.584 270.161 43.384C270.161 39.736 269.393 36.472 267.857 33.592C266.321 30.712 263.217 29.272 258.545 29.272C257.201 29.272 255.793 29.528 254.321 30.04C252.913 30.488 251.569 31.128 250.289 31.96V54.808C251.569 55.576 252.913 56.216 254.321 56.728C255.793 57.24 257.201 57.496 258.545 57.496ZM237.905 20.44H244.241L246.929 23.896C249.041 22.296 251.505 21.016 254.321 20.056C257.137 19.096 259.633 18.616 261.809 18.616C268.657 18.616 273.905 20.984 277.553 25.72C281.201 30.456 283.025 36.344 283.025 43.384C283.025 50.424 281.137 56.312 277.361 61.048C273.649 65.784 268.465 68.152 261.809 68.152C260.145 68.152 258.257 67.864 256.145 67.288C254.097 66.712 252.145 65.912 250.289 64.888V87.064L237.905 88.024V20.44ZM320.375 33.016C318.135 31.992 316.055 31.224 314.135 30.712C312.215 30.136 310.167 29.848 307.991 29.848C306.391 29.848 305.143 30.168 304.247 30.808C303.415 31.384 302.999 32.216 302.999 33.304C302.999 34.072 303.511 34.808 304.535 35.512C305.623 36.216 307.351 36.984 309.719 37.816C313.623 39.224 317.239 41.208 320.567 43.768C323.895 46.264 325.559 49.528 325.559 53.56C325.559 58.168 323.895 61.752 320.567 64.312C317.303 66.872 312.503 68.152 306.167 68.152C304.183 68.152 301.527 67.768 298.199 67C294.935 66.232 292.215 65.016 290.039 63.352L293.783 54.328C296.023 55.352 298.167 56.152 300.215 56.728C302.327 57.24 304.247 57.496 305.975 57.496C308.279 57.496 310.039 57.176 311.255 56.536C312.471 55.896 313.079 55.064 313.079 54.04C313.079 52.76 312.471 51.608 311.255 50.584C310.039 49.56 308.119 48.632 305.495 47.8C301.783 46.584 298.263 44.856 294.935 42.616C291.671 40.312 290.039 37.24 290.039 33.4C290.039 28.984 291.671 25.528 294.935 23.032C298.199 20.472 302.615 19.192 308.183 19.192C310.167 19.192 312.727 19.608 315.863 20.44C318.999 21.272 321.751 22.488 324.119 24.088L320.375 33.016Z" fill="url(#paint0_linear_1_5)"/>
<defs>
<linearGradient id="paint0_linear_1_5" x1="97.6715" y1="-24.931" x2="233.053" y2="0.800532" gradientUnits="userSpaceOnUse">
<stop stop-color="#4F8DD9"/>
<stop offset="1" stop-color="#3BB3F9"/>
</linearGradient>
</defs>
</svg>
