<svg width="325" height="88" viewBox="0 0 325 88" fill="none" xmlns="http://www.w3.org/2000/svg">
<path d="M51.104 1.536C53.3131 1.536 55.104 3.32686 55.104 5.536V62.816C55.104 65.0251 53.3131 66.816 51.104 66.816H44.7198C43.4072 66.816 42.1782 66.172 41.431 65.0928L19.6728 33.6642C17.4406 30.44 12.384 32.0196 12.384 35.9411V62.816C12.384 65.0251 10.5931 66.816 8.384 66.816H4C1.79086 66.816 0 65.0251 0 62.816V5.536C0 3.32686 1.79086 1.536 4 1.536H10.2908C11.6019 1.536 12.8298 2.17855 13.5772 3.25578L35.3376 34.6183C37.5718 37.8385 42.624 36.2574 42.624 32.3381V5.53601C42.624 3.32687 44.4149 1.536 46.624 1.536H51.104Z" fill="black"/>
<path d="M90.642 67.968C83.282 67.968 77.522 65.76 73.362 61.344C69.266 56.864 67.218 50.88 67.218 43.392C67.218 35.968 69.362 30.048 73.65 25.632C78.002 21.216 83.922 19.008 91.41 19.008C99.154 19.008 105.138 21.312 109.362 25.92C113.65 30.464 115.794 36.448 115.794 43.872C115.794 51.296 113.49 57.184 108.882 61.536C104.274 65.824 98.194 67.968 90.642 67.968ZM102.93 43.872C102.93 39.456 101.938 36 99.954 33.504C98.034 30.944 95.282 29.664 91.698 29.664C88.05 29.664 85.202 30.784 83.154 33.024C81.106 35.264 80.082 38.688 80.082 43.296C80.082 47.904 80.946 51.392 82.674 53.76C84.466 56.128 87.186 57.312 90.834 57.312C94.418 57.312 97.33 56.256 99.57 54.144C101.81 51.968 102.93 48.544 102.93 43.872Z" fill="black"/>
<path d="M159.723 66.6749C159.937 68.8356 158.391 70.7693 156.232 70.9969C152.213 71.4207 145.911 72 141.5 72C136.957 72 131.091 71.3854 127.569 70.9593C125.756 70.7398 124.354 69.2898 124.156 67.4737L124 66.046C123.716 63.4314 125.988 61.2451 128.598 61.5625C132.256 62.0072 137.173 62.5 141 62.5C145.267 62.5 151.106 61.8875 154.997 61.4121C157.262 61.1352 159.336 62.7635 159.561 65.0348L159.723 66.6749Z" fill="black"/>
<path d="M165.033 34.464C165.033 24.416 167.657 16.224 172.905 9.888C178.153 3.488 185.545 0.192001 195.081 0C205.321 0 212.905 3.296 217.833 9.888C222.761 16.48 225.225 24.448 225.225 33.792C225.225 43.904 222.569 52.16 217.257 58.56C212.009 64.96 204.617 68.16 195.081 68.16C184.905 68.16 177.353 64.896 172.425 58.368C167.497 51.776 165.033 43.808 165.033 34.464ZM177.993 34.368C177.993 41.216 179.369 46.816 182.121 51.168C184.873 55.52 189.161 57.696 194.985 57.696C200.233 57.696 204.425 55.744 207.561 51.84C210.697 47.936 212.265 41.92 212.265 33.792C212.265 27.008 210.889 21.44 208.137 17.088C205.385 12.736 201.097 10.56 195.273 10.56C190.153 10.56 185.993 12.704 182.793 16.992C179.593 21.28 177.993 27.072 177.993 34.368Z" fill="black"/>
<path d="M257.981 57.312C262.269 57.312 265.277 55.776 267.005 52.704C268.733 49.568 269.597 46.4 269.597 43.2C269.597 39.552 268.829 36.288 267.293 33.408C265.757 30.528 262.653 29.088 257.981 29.088C256.637 29.088 255.229 29.344 253.757 29.856C253.026 30.0888 252.311 30.3734 251.614 30.7098C250.395 31.2983 249.725 32.5928 249.725 33.9467V52.3592C249.725 53.7643 250.451 55.0907 251.721 55.6931C252.384 56.0079 253.063 56.2915 253.757 56.544C255.229 57.056 256.637 57.312 257.981 57.312ZM237.341 24.256C237.341 22.0469 239.132 20.256 241.341 20.256H243.505C243.62 20.256 243.733 20.2609 243.848 20.2685C244.494 20.3114 246.865 20.427 249 20C251.5 19.5 251 19.5 254 19C256.855 18.5242 260.838 18.4396 261.216 18.4325C261.237 18.4321 261.256 18.432 261.277 18.432C268.11 18.4394 273.347 20.8074 276.989 25.536C280.637 30.272 282.461 36.16 282.461 43.2C282.461 50.24 280.573 56.128 276.797 60.864C273.085 65.6 267.901 67.968 261.245 67.968C259.581 67.968 257.693 67.68 255.581 67.104V67.104C252.837 66.3323 249.725 68.1964 249.725 71.0468V83.1781C249.725 85.2673 248.117 87.0046 246.034 87.1661L241.65 87.506C239.326 87.6861 237.341 85.8489 237.341 83.5179V24.256Z" fill="black"/>
<path d="M321.407 29.0244C320.534 31.1075 318.118 32.0261 315.987 31.2778C315.155 30.9857 314.35 30.7358 313.57 30.528C311.65 29.952 309.603 29.664 307.427 29.664C305.827 29.664 304.578 29.984 303.682 30.624C302.85 31.2 302.435 32.032 302.435 33.12C302.435 33.888 302.946 34.624 303.97 35.328C305.058 36.032 306.787 36.8 309.155 37.632C313.059 39.04 316.675 41.024 320.003 43.584C323.331 46.08 324.995 49.344 324.995 53.376C324.995 57.984 323.331 61.568 320.003 64.128C316.739 66.688 311.939 67.968 305.603 67.968C303.619 67.968 300.962 67.584 297.634 66.816C295.561 66.328 293.706 65.6592 292.072 64.8095C290.462 63.9729 289.958 62.0017 290.653 60.3265L291.63 57.9722C292.498 55.8803 294.921 54.9487 297.054 55.7121C297.936 56.0279 298.801 56.3052 299.651 56.544C301.763 57.056 303.682 57.312 305.41 57.312C307.714 57.312 309.474 56.992 310.69 56.352C311.906 55.712 312.514 54.88 312.514 53.856C312.514 52.576 311.906 51.424 310.69 50.4C309.474 49.376 307.555 48.448 304.931 47.616C301.219 46.4 297.699 44.672 294.371 42.432C291.107 40.128 289.474 37.056 289.474 33.216C289.474 28.8 291.107 25.344 294.371 22.848C297.635 20.288 302.05 19.008 307.618 19.008C309.602 19.008 312.162 19.424 315.298 20.256C317.255 20.775 319.061 21.4433 320.718 22.261C322.429 23.1049 323.024 25.1702 322.286 26.9289L321.407 29.0244Z" fill="black"/>
</svg>

